<svg xmlns="http://www.w3.org/2000/svg" viewBox="0 0 128 128">
  <defs>
    <radialGradient id="grad1" gradientUnits="userSpaceOnUse" cx="78.58" cy="82.15" r="23.42">
      <stop offset="0.73" stop-color="#6D4C41" stop-opacity="0.0"/>
      <stop offset="1" stop-color="#6D4C41" stop-opacity="1.0"/>
    </radialGradient>
    <radialGradient id="grad2" gradientUnits="userSpaceOnUse" cx="101.65" cy="78.67" r="6.92">
      <stop offset="0.66" stop-color="#6D4C41" stop-opacity="1.0"/>
      <stop offset="1" stop-color="#6D4C41" stop-opacity="0.0"/>
    </radialGradient>
    <radialGradient id="grad3" gradientUnits="userSpaceOnUse" cx="83.71" cy="59.09" r="30.4">
      <stop offset="0.72" stop-color="#6D4C41" stop-opacity="0.0"/>
      <stop offset="1" stop-color="#6D4C41" stop-opacity="1.0"/>
    </radialGradient>
    <radialGradient id="grad4" gradientUnits="userSpaceOnUse" cx="44.31" cy="59.09" r="30.4">
      <stop offset="0.72" stop-color="#6D4C41" stop-opacity="0.0"/>
      <stop offset="1" stop-color="#6D4C41" stop-opacity="1.0"/>
    </radialGradient>
    <radialGradient id="grad5" gradientUnits="userSpaceOnUse" cx="49.44" cy="82.15" r="23.42">
      <stop offset="0.73" stop-color="#6D4C41" stop-opacity="0.0"/>
      <stop offset="1" stop-color="#6D4C41" stop-opacity="1.0"/>
    </radialGradient>
    <radialGradient id="grad6" gradientUnits="userSpaceOnUse" cx="26.37" cy="78.67" r="6.92">
      <stop offset="0.66" stop-color="#6D4C41" stop-opacity="1.0"/>
      <stop offset="1" stop-color="#6D4C41" stop-opacity="0.0"/>
    </radialGradient>
    <radialGradient id="grad7" gradientUnits="userSpaceOnUse" cx="64.3" cy="123.83" r="62.35">
      <stop offset="0.39" stop-color="#ED6D23" stop-opacity="1.0"/>
      <stop offset="1" stop-color="#F78C1F" stop-opacity="1.0"/>
    </radialGradient>
    <radialGradient id="grad8" gradientUnits="userSpaceOnUse" cx="82.02" cy="43.05" r="35.63">
      <stop offset="0.7" stop-color="#6D4C41" stop-opacity="0.0"/>
      <stop offset="1" stop-color="#6D4C41" stop-opacity="1.0"/>
    </radialGradient>
    <radialGradient id="grad9" gradientUnits="userSpaceOnUse" cx="47.28" cy="4.2" r="9.34">
      <stop offset="0.58" stop-color="#6D4C41" stop-opacity="1.0"/>
      <stop offset="1" stop-color="#6D4C41" stop-opacity="0.0"/>
    </radialGradient>
    <radialGradient id="grad10" gradientUnits="userSpaceOnUse" cx="68.16" cy="21.17" r="29.22">
      <stop offset="0.7" stop-color="#6D4C41" stop-opacity="0.0"/>
      <stop offset="1" stop-color="#6D4C41" stop-opacity="1.0"/>
    </radialGradient>
    <radialGradient id="grad11" gradientUnits="userSpaceOnUse" cx="43.53" cy="12.72" r="8.57">
      <stop offset="0.7" stop-color="#6D4C41" stop-opacity="0.0"/>
      <stop offset="1" stop-color="#6D4C41" stop-opacity="1.0"/>
    </radialGradient>
    <radialGradient id="grad12" gradientUnits="userSpaceOnUse" cx="42.35" cy="27.86" r="16.08">
      <stop offset="0.66" stop-color="#6D4C41" stop-opacity="0.0"/>
      <stop offset="1" stop-color="#6D4C41" stop-opacity="1.0"/>
    </radialGradient>
    <radialGradient id="grad13" gradientUnits="userSpaceOnUse" cx="38.54" cy="43.39" r="16.89">
      <stop offset="0.6" stop-color="#6D4C41" stop-opacity="0.0"/>
      <stop offset="1" stop-color="#6D4C41" stop-opacity="1.0"/>
    </radialGradient>
    <linearGradient id="grad14" gradientUnits="userSpaceOnUse" x1="70.56" y1="85.29" x2="58.04" y2="91.18">
      <stop offset="0.51" stop-color="#000000" stop-opacity="1.0"/>
      <stop offset="1" stop-color="#000000" stop-opacity="0.0"/>
    </linearGradient>
    <linearGradient id="grad15" gradientUnits="userSpaceOnUse" x1="58.34" y1="36.37" x2="75.08" y2="74.7">
      <stop offset="0.5" stop-color="#BA8D68" stop-opacity="1.0"/>
      <stop offset="1" stop-color="#A47B62" stop-opacity="1.0"/>
    </linearGradient>
    <linearGradient id="grad16" gradientUnits="userSpaceOnUse" x1="67.67" y1="108.89" x2="84.19" y2="102.4">
      <stop offset="0.39" stop-color="#ED6D23" stop-opacity="1.0"/>
      <stop offset="1" stop-color="#F78C1F" stop-opacity="1.0"/>
    </linearGradient>
  </defs>
  <path d="M98.9,79.85c-1.25,-2.27 0.34,-4.58 3.06,-7.44c4.31,-4.54 9,-15.07 4.64,-25.76c0.03,-0.06 -0.86,-1.86 -0.83,-1.92l-1.79,-0.09c-0.57,-0.08 -20.26,-0.12 -39.97,-0.12s-39.4,0.04 -39.97,0.12c0,0 -2.65,1.95 -2.63,2.01c-4.35,10.69 0.33,21.21 4.64,25.76c2.71,2.86 4.3,5.17 3.06,7.44c-1.21,2.21 -4.81,2.53 -4.81,2.53s0.83,2.26 2.83,3.48c1.85,1.13 4.13,1.39 5.7,1.43c0,0 6.15,8.51 22.23,8.51h17.9c16.08,0 22.23,-8.51 22.23,-8.51c1.57,-0.04 3.85,-0.3 5.7,-1.43c2,-1.22 2.83,-3.48 2.83,-3.48s-3.61,-0.32 -4.82,-2.53z" fill="#543930"/>
  <path d="M63.99,95.79v-9.44l28.57,-2.26l2.6,3.2s-6.15,8.51 -22.23,8.51l-8.94,-0.01z" fill="url(#grad1)"/>
  <path d="M95.1,83.16c-4.28,-6.5 5.21,-8.93 5.21,-8.93l0.01,0.01c-1.65,2.05 -2.4,3.84 -1.43,5.61c1.21,2.21 4.81,2.53 4.81,2.53s-4.91,4.36 -8.6,0.78z" fill="url(#grad2)"/>
  <path d="M106.62,46.65c4.25,10.35 -0.22,21.01 -4.41,25.51c-0.57,0.62 -3.01,3.01 -3.57,4.92c0,0 -9.54,-13.31 -12.39,-21.13c-0.57,-1.58 -1.1,-3.2 -1.17,-4.88c-0.05,-1.26 0.14,-2.76 0.87,-3.83c0.89,-1.31 20.16,-1.7 20.16,-1.7c0,0.01 0.51,1.11 0.51,1.11z" fill="url(#grad3)"/>
  <path d="M21.4,46.65c-4.24,10.35 0.23,21.01 4.41,25.5c0.58,0.62 3.01,3.01 3.57,4.92c0,0 9.54,-13.31 12.39,-21.13c0.58,-1.58 1.1,-3.2 1.17,-4.88c0.05,-1.26 -0.14,-2.76 -0.87,-3.83c-0.89,-1.31 -1.93,-0.96 -3.44,-0.96c-2.88,0 -15.49,-0.74 -16.47,-0.74c0.01,0.02 -0.76,1.12 -0.76,1.12z" fill="url(#grad4)"/>
  <path d="M64.03,95.79v-9.44l-28.57,-2.26l-2.6,3.2s6.15,8.51 22.23,8.51l8.94,-0.01z" fill="url(#grad5)"/>
  <path d="M32.92,83.16c4.28,-6.5 -5.21,-8.93 -5.21,-8.93l-0.01,0.01c1.65,2.05 2.4,3.84 1.43,5.61c-1.21,2.21 -4.81,2.53 -4.81,2.53s4.91,4.36 8.6,0.78z" fill="url(#grad6)"/>
  <path d="M64.13,96H64c-25.49,0.03 -52,7.28 -52,25.06V124h104v-2.94C116,104.3 89.74,96 64.13,96z" fill="url(#grad7)"/>
  <path d="M54.92,90.08v9.98c0,4.51 3.7,8.17 8.26,8.17h1.65c4.56,0 8.26,-3.66 8.26,-8.17v-9.98H54.92z" fill="#99674f"/>
  <path d="M91.33,50.43H36.67c-5.89,0 -10.71,5.14 -10.71,11.41s4.82,11.41 10.71,11.41h54.65c5.89,0 10.71,-5.14 10.71,-11.41s-4.81,-11.41 -10.7,-11.41z" fill="#99674f"/>
  <path d="M64.02,11.07c-17.4,-0.01 -33.53,18.6 -33.54,45.38c-0.01,26.64 16.59,39.82 33.5,39.83s33.53,-13.15 33.54,-39.79c0.01,-26.8 -16.1,-45.42 -33.5,-45.42z" fill="#ba8d68"/>
  <path d="M54.99,51.82c-0.93,-1.23 -3.07,-3.01 -7.23,-3.01s-6.31,1.79 -7.23,3.01c-0.41,0.54 -0.31,1.17 -0.02,1.55c0.26,0.35 1.04,0.68 1.9,0.39s2.54,-1.16 5.35,-1.18c2.81,0.02 4.49,0.89 5.35,1.18c0.86,0.29 1.64,-0.03 1.9,-0.39c0.28,-0.38 0.38,-1.01 -0.02,-1.55z" fill="#613e31"/>
  <path d="M87.48,51.82c-0.93,-1.23 -3.07,-3.01 -7.23,-3.01s-6.31,1.79 -7.23,3.01c-0.41,0.54 -0.31,1.17 -0.02,1.55c0.26,0.35 1.04,0.68 1.9,0.39s2.54,-1.16 5.35,-1.18c2.81,0.02 4.49,0.89 5.35,1.18c0.86,0.29 1.64,-0.03 1.9,-0.39c0.29,-0.38 0.39,-1.01 -0.02,-1.55z" fill="#613e31"/>
  <path d="M67.81,68.06c-0.11,-0.04 -0.21,-0.07 -0.32,-0.08H60.5c-0.11,0.01 -0.21,0.04 -0.32,0.08c-0.63,0.26 -0.98,0.91 -0.68,1.61c0.3,0.7 1.69,2.66 4.49,2.66c2.8,0 4.2,-1.96 4.49,-2.66c0.31,-0.7 -0.03,-1.36 -0.67,-1.61z" fill="#99674f"/>
  <path d="M47.69,60.3c-2.06,0 -3.9,-0.5 -5.18,-1.29c-0.55,-0.34 -0.87,-0.14 -0.77,0.5c0.37,2.48 2.9,4.4 5.95,4.4c3.06,0 5.58,-1.92 5.95,-4.4c0.1,-0.64 -0.22,-0.84 -0.77,-0.5c-1.28,0.79 -3.12,1.29 -5.18,1.29z" fill="#49362e"/>
  <path d="M80.31,60.3c-2.06,0 -3.9,-0.5 -5.18,-1.29c-0.55,-0.34 -0.87,-0.14 -0.77,0.5c0.38,2.48 2.9,4.4 5.95,4.4s5.58,-1.92 5.95,-4.4c0.1,-0.64 -0.22,-0.84 -0.77,-0.5c-1.28,0.79 -3.13,1.29 -5.18,1.29z" fill="#49362e"/>
  <path d="M73.95,81.76c0,1.01 -4.46,1.22 -9.95,1.22s-9.95,-0.23 -9.95,-1.22c0,-1.04 4.46,-1.68 9.95,-1.68s9.95,0.62 9.95,1.68z" fill="#5d4037"/>
  <path d="M104.07,25.11c-2.44,-3.69 -7.91,-8.64 -12.82,-8.97c-0.79,-4.72 -5.84,-8.72 -10.73,-10.27c-13.23,-4.19 -21.84,0.51 -26.46,3.03c-0.96,0.52 -7.17,3.97 -11.51,1.5c-2.72,-1.55 -2.67,-5.74 -2.67,-5.74s-8.52,3.25 -5.61,12.3c-2.93,0.12 -6.77,1.36 -8.8,5.47c-2.42,4.9 -1.56,8.99 -0.86,10.95c-2.52,2.14 -5.69,6.69 -3.52,12.6c1.64,4.45 8.17,6.5 8.17,6.5c-0.46,8.01 1.03,12.94 1.82,14.93c0.14,0.35 0.63,0.32 0.72,-0.04c0.99,-3.97 4.37,-17.8 4.03,-20.21c0,0 11.35,-2.25 22.17,-10.22c2.2,-1.62 4.59,-3 7.13,-4.01c13.59,-5.41 16.43,3.82 16.43,3.82s9.42,-1.81 12.26,11.27c1.07,4.9 1.79,12.75 2.4,18.24c0.04,0.39 0.57,0.47 0.72,0.11c0.95,-2.18 2.85,-6.5 3.3,-10.91c0.16,-1.55 4.34,-3.6 6.14,-10.26c2.41,-8.88 -0.54,-17.42 -2.31,-20.09z" fill="#543930"/>
  <path d="M100.22,55.5c0.16,-1.55 4.34,-3.6 6.14,-10.26c0.19,-0.71 0.35,-1.43 0.5,-2.15c1.46,-8.09 -1.16,-15.52 -2.79,-17.98c-2.26,-3.41 -7.1,-7.89 -11.69,-8.81c-0.4,-0.05 -0.79,-0.1 -1.16,-0.12c0,0 0.33,2.15 -0.54,3.86c-1.12,2.22 -3.41,2.75 -3.41,2.75c11.97,11.98 11.12,22 12.95,32.71z" fill="url(#grad8)"/>
  <path d="M56.95,7.39c-1.1,0.53 -2.06,1.06 -2.9,1.51c-0.96,0.52 -7.17,3.97 -11.51,1.5c-2.67,-1.52 -2.67,-5.58 -2.67,-5.72c-1.23,1.57 -4.95,12.78 5.93,13.53c4.69,0.32 7.58,-3.77 9.3,-7.23c0.62,-1.26 1.59,-3.1 1.85,-3.59z" fill="url(#grad9)"/>
  <path d="M79.16,5.47c7.32,1.98 10.89,5.71 12.08,10.68c0.35,1.46 0.77,15.08 -25.23,-0.4c-9.67,-5.76 -7.03,-9.36 -5.9,-9.77c4.42,-1.6 10.85,-2.73 19.05,-0.51z" fill="url(#grad10)"/>
  <path d="M39.84,4.68c-0.01,0.01 -0.03,0.01 -0.06,0.03h-0.01c-0.93,0.39 -8.24,3.78 -5.51,12.25l7.78,1.25c-6.89,-6.98 -2.17,-13.55 -2.17,-13.55s-0.02,0.01 -0.03,0.02z" fill="url(#grad11)"/>
  <path d="M39.07,17.73l-4.81,-0.77c-0.19,0 -0.83,0.06 -1.18,0.11c-2.71,0.38 -5.9,1.78 -7.63,5.36c-1.86,3.86 -1.81,7.17 -1.3,9.38c0.15,0.74 0.45,1.58 0.45,1.58s2.38,-2.26 8.05,-2.41l6.42,-13.25z" fill="url(#grad12)"/>
  <path d="M24.37,33.58c-2.37,2.1 -5.56,6.79 -3.21,12.61c1.77,4.39 8.09,6.29 8.09,6.29c0,0.02 1.26,0.4 1.91,0.4l1.48,-21.9c-3.03,0 -5.94,0.91 -7.82,2.22c0.03,0.03 -0.46,0.35 -0.45,0.38z" fill="url(#grad13)"/>
  <path d="M82.42,74.24c1.75,-4.43 1.44,-6.57 0.16,-10.63c-0.33,-1.05 -0.53,-3.34 -0.6,-4.12c-0.26,-2.98 0.76,-6.75 1.41,-7.5c1.19,-1.37 1.53,-2.85 1.38,-4.38c-0.22,-2.22 -3.89,-5.01 -7.91,-0.84c-1.62,1.69 -2.31,4.38 -2.31,4.38c-1.81,-4.31 -4.98,-11.93 -5.39,-12.9l-0.06,-0.15c-0.65,-1.63 -1.88,-2.88 -3.35,-3.4c-1.33,-0.48 -2.76,-0.35 -4.04,0.35c-0.88,0.48 -1.57,1.22 -2,2.1c-1.38,-1.3 -3.16,-1.76 -4.93,-1.16c-1.39,0.47 -2.45,1.46 -2.98,2.78c-0.35,0.88 -0.45,1.85 -0.3,2.83c-1.09,-0.2 -2.22,0 -3.24,0.6c-0.94,0.56 -3.81,2.71 -1.49,7.17c0.05,0.1 0.12,0.23 0.21,0.38c-0.88,0.04 -1.59,0.33 -2.05,0.59c-1.3,0.72 -2.19,1.87 -2.49,3.25c-0.33,1.48 0.06,3.1 1.04,4.43l6.18,9.06s3.87,5.86 5.46,8.3c1.27,1.94 2.69,3.53 4.25,4.73c-0.34,0.99 -0.28,2.05 0.14,2.92L74.45,124h34.47s-26.49,-49.75 -26.5,-49.76z" fill="url(#grad14)" fill-opacity="0.2" stroke-opacity="0.2"/>
  <path d="M81.77,45.85c-1.08,-0.41 -2.83,-0.01 -4.37,1.86s-1.01,4.46 -1.65,6.08c-0.21,0.52 -0.94,0.52 -1.15,0c-1.4,-3.44 -6.7,-16.01 -6.7,-16.01c-0.68,-1.71 -2.29,-2.66 -3.87,-1.79c-1.26,0.69 -1.49,2.26 -0.91,3.69l4.29,11.51c0.06,0.15 0,0.32 -0.13,0.38c-0.14,0.07 -0.32,0.01 -0.4,-0.15L60,38.92c-0.71,-1.36 -1.94,-2.27 -3.3,-1.81c-1.69,0.57 -2.06,2.41 -1.21,4.05l6.22,12.72c0.16,0.31 0.06,0.67 -0.21,0.84c0,0 -0.01,0 -0.01,0.01c-0.28,0.17 -0.66,0.06 -0.84,-0.25c0,0 -5.46,-8.63 -6.22,-9.89s-2.22,-2.41 -3.78,-1.49s-1.31,2.42 -0.55,3.87c0.65,1.24 4.61,7.94 5.76,9.87a0.62,0.62 0,0 1,-1.01 0.71l-4.17,-5.05c-1.03,-1.25 -2.17,-1.91 -3.42,-1.22c-1.56,0.86 -1.69,2.59 -0.6,4.08l6.2,9.09s3.88,5.87 5.47,8.31c4.19,6.42 8.62,6.24 9.52,6.26c2.34,0.05 7.24,-2.01 8.82,-2.77c8.83,-4.24 4.41,-11.94 4.01,-16.53c-0.25,-2.83 0.83,-8.11 2.23,-9.95c1.35,-1.84 -0.23,-3.58 -1.14,-3.92z" fill="url(#grad15)"/>
  <path d="M78.69,124L62.95,80.9c-0.02,-0.04 -0.03,-0.09 -0.06,-0.13c-0.18,-0.37 -0.2,-0.79 -0.05,-1.17s0.43,-0.69 0.8,-0.85l16.58,-7.29c0.19,-0.08 0.4,-0.13 0.6,-0.13c0.56,0 1.07,0.31 1.33,0.8L111.94,124H78.69z" fill="url(#grad16)"/>
</svg>
