<svg xmlns="http://www.w3.org/2000/svg" viewBox="0 0 36 36">
  <path d="M25,22h-0.253c0.16,-0.798 0.253,-1.633 0.253,-2.5c0,-5.247 -3.134,-9.5 -7,-9.5s-7,4.253 -7,9.5c0,0.867 0.093,1.702 0.253,2.5H11c-2,3 -1.502,8.056 0.122,9C18,35 14,29 18,29s0,6 6.878,2c1.624,-0.944 2.122,-6 0.122,-9z" fill="#C1694F"/>
  <path d="M23.667,20.458c-0.177,-1.544 0.317,-3.562 0.255,-5.25C22.535,16.292 19.947,17 18,17s-4.51,-0.708 -5.897,-1.792c-0.062,1.688 0.407,3.706 0.23,5.25c-0.458,4 2.353,7.184 5.667,7.184s6.125,-3.184 5.667,-7.184z" fill="#C1694F"/>
  <path d="M12.373,14s-5,1 -6,7s3.419,6.581 5,5c2,-2 0,-4 0,-4s1,-5 1,-8zM23.627,14s5,1 6,7s-3.419,6.581 -5,5c-2,-2 0,-4 0,-4s-1,-5 -1,-8z" fill="#C1694F"/>
  <path d="M13,13c-2,0 -1,1 -1,2s1,3 3,2c0,0 -1,2 -1,5c0,0 2,0 3,2c0,0 1,-7 1,-9s-4,-2 -5,-2zM23,13c2,0 1,1 1,2s-1,3 -3,2c0,0 1,2 1,5c0,0 -2,0 -3,2c0,0 -1,-7 -1,-9s4,-2 5,-2z" fill="#A0041E"/>
  <path d="M11,4m-4,0a4,4 0,1 1,8 0a4,4 0,1 1,-8 0" fill="#C1694F"/>
  <path d="M11,4m-2,0a2,2 0,1 1,4 0a2,2 0,1 1,-4 0" fill="#662113"/>
  <path d="M25,4m-4,0a4,4 0,1 1,8 0a4,4 0,1 1,-8 0" fill="#C1694F"/>
  <path d="M25,4m-2,0a2,2 0,1 1,4 0a2,2 0,1 1,-4 0" fill="#662113"/>
  <path d="M10,8.5a8,7.5 0,1 0,16 0a8,7.5 0,1 0,-16 0z" fill="#C1694F"/>
  <path d="M15,8m-1,0a1,1 0,1 1,2 0a1,1 0,1 1,-2 0" fill="#292F33"/>
  <path d="M21,8m-1,0a1,1 0,1 1,2 0a1,1 0,1 1,-2 0" fill="#292F33"/>
  <path d="M18.058,9.563c-6.808,0 -4.612,5.562 -0.147,5.562c4.464,0 6.955,-5.562 0.147,-5.562z" fill="#D99E82"/>
  <path d="M16.737,11.065l0.526,0.911a0.851,0.851 0,0 0,1.474 0l0.526,-0.911a0.851,0.851 0,0 0,-0.737 -1.277h-1.052a0.851,0.851 0,0 0,-0.737 1.277z" fill="#292F33"/>
  <path d="M11.265,27.002a0.499,0.499 0,0 1,-0.269 -0.921a2.417,2.417 0,0 0,0.997 -2.022c-0.023,-0.991 -0.933,-1.641 -0.942,-1.646a0.507,0.507 0,0 1,-0.213 -0.368c-0.205,-2.36 0.65,-4.709 0.687,-4.809a0.5,0.5 0,0 1,0.938 0.346c-0.008,0.021 -0.761,2.099 -0.644,4.165c0.375,0.322 1.146,1.124 1.174,2.289c0.044,1.91 -1.398,2.851 -1.459,2.89a0.523,0.523 0,0 1,-0.269 0.076zM24.736,27.002a0.5,0.5 0,0 1,-0.269 -0.078c-0.062,-0.039 -1.504,-0.979 -1.46,-2.89c0.027,-1.165 0.799,-1.967 1.174,-2.289c0.118,-2.072 -0.636,-4.143 -0.644,-4.164a0.5,0.5 0,1 1,0.938 -0.347c0.037,0.099 0.893,2.448 0.688,4.809a0.502,0.502 0,0 1,-0.215 0.369c-0.008,0.005 -0.918,0.654 -0.94,1.646a2.416,2.416 0,0 0,0.997 2.022a0.5,0.5 0,0 1,-0.269 0.922zM24.665,22h0.01h-0.01z" fill="#934035"/>
  <path d="M7.94,33.681a4.5,5 134.999,1 0,6.364 -6.364a4.5,5 134.999,1 0,-6.364 6.364z" fill="#C1694F"/>
  <path d="M13.349,33.227c-1.054,1.054 -2.906,0.912 -4.137,-0.318c-1.23,-1.23 -1.373,-3.082 -0.318,-4.137c1.054,-1.054 2.906,-0.912 4.137,0.318c1.23,1.231 1.372,3.083 0.318,4.137z" fill="#D99E82"/>
  <path d="M12.889,32.768c-0.781,0.781 -2.206,0.623 -3.182,-0.354c-0.976,-0.976 -1.135,-2.401 -0.354,-3.182c0.781,-0.781 2.206,-0.623 3.182,0.354s1.135,2.401 0.354,3.182z" fill="#D99E82"/>
  <path d="M21.343,34.036a5,4.5 134.999,1 0,7.071 -7.071a5,4.5 134.999,1 0,-7.071 7.071z" fill="#C1694F"/>
  <path d="M22.651,33.227c1.054,1.054 2.906,0.912 4.137,-0.318c1.23,-1.23 1.373,-3.082 0.318,-4.137c-1.054,-1.054 -2.906,-0.912 -4.137,0.318c-1.23,1.231 -1.372,3.083 -0.318,4.137z" fill="#D99E82"/>
  <path d="M23.11,32.768a2.5,2 134.999,1 0,3.535 -3.536a2.5,2 134.999,1 0,-3.535 3.536z" fill="#D99E82"/>
  <path d="M18.087,14.138c-1.28,0 -2.249,-0.947 -2.264,-0.961a0.25,0.25 0,0 1,0.353 -0.354c0.075,0.074 1.849,1.797 3.647,0a0.25,0.25 0,1 1,0.354 0.354c-0.721,0.721 -1.445,0.961 -2.09,0.961z" fill="#292F33"/>
  <path d="M15.95,29.727a0.5,0.5 0,0 1,-0.449 -0.28c-2.274,-4.635 -6.795,-3.15 -6.986,-3.086a0.5,0.5 0,0 1,-0.326 -0.946c0.055,-0.02 5.543,-1.845 8.21,3.592a0.5,0.5 0,0 1,-0.449 0.72zM20.051,29.727a0.499,0.499 0,0 1,-0.46 -0.695c2.255,-5.301 8.141,-3.641 8.198,-3.623a0.499,0.499 0,0 1,0.339 0.619a0.505,0.505 0,0 1,-0.619 0.341c-0.207,-0.061 -5.096,-1.42 -6.998,3.054a0.502,0.502 0,0 1,-0.46 0.304z" fill="#934035"/>
</svg>
