<svg xmlns="http://www.w3.org/2000/svg" viewBox="0 0 512 512">
  <path fill="#FCD73F" d="M128.65,321.08c32.71,32.28 77.63,52.22 127.2,52.25c0.05,0 0.1,0 0.14,0c49.63,0 94.61,-19.94 127.34,-52.26c33.34,-32.87 53.99,-78.56 53.99,-129.08c0,-100.15 -81.18,-181.33 -181.33,-181.33c-100.15,0 -181.33,81.18 -181.33,181.33C74.67,242.51 95.32,288.2 128.65,321.08z"/>
  <path fill="#FF2C47" d="M255.85,373.33c-49.57,-0.03 -94.49,-19.97 -127.2,-52.25L64,433.07l93.26,-24.99l24.99,93.25l73.68,-127.87L255.85,373.33z"/>
  <path fill="#FF2C47" d="M256,373.33l-0.07,0.13l73.83,127.87l24.99,-93.25L448,433.07l-64.66,-111.99C350.61,353.39 305.63,373.33 256,373.33z"/>
  <path fill="#000003" d="M256,64c5.89,0 10.67,-4.78 10.67,-10.67s-4.78,-10.67 -10.67,-10.67c-68,0 -127.43,45.91 -144.53,111.64c-1.48,5.7 1.94,11.52 7.64,13.01c0.9,0.23 1.8,0.35 2.69,0.35c4.74,0 9.07,-3.18 10.32,-7.98C146.77,103.35 197.71,64 256,64z"/>
  <path fill="#000003" d="M117.94,175.13c-5.86,-0.27 -10.87,4.3 -11.13,10.19c-0.1,2.21 -0.15,4.46 -0.15,6.68c0,5.89 4.78,10.67 10.67,10.67c5.89,0 10.67,-4.78 10.67,-10.67c0,-1.91 0.04,-3.84 0.13,-5.74C128.38,180.38 123.82,175.4 117.94,175.13z"/>
  <path fill="#000003" d="M245.33,330.67c0,5.89 4.78,10.67 10.67,10.67c68,0 127.44,-45.91 144.53,-111.64c1.48,-5.7 -1.94,-11.53 -7.64,-13.01c-5.71,-1.49 -11.53,1.94 -13.01,7.64C365.23,280.66 314.29,320 256,320C250.11,320 245.33,324.78 245.33,330.67z"/>
  <path fill="#000003" d="M394.06,208.87c0.16,0.01 0.32,0.01 0.48,0.01c5.68,0 10.4,-4.47 10.65,-10.2c0.1,-2.21 0.15,-4.46 0.15,-6.68c0,-5.89 -4.78,-10.67 -10.67,-10.67c-5.89,0 -10.67,4.78 -10.67,10.67c0,1.91 -0.04,3.84 -0.13,5.74C383.61,203.63 388.17,208.61 394.06,208.87z"/>
  <path fill="#000003" d="M260.21,122.59c-5.34,0 -11.3,1.37 -17.87,4.11l-24.03,9.65c-2.05,0.96 -3.08,2.26 -3.08,3.9c0,1.37 1.58,6.44 4.72,15.2c0.69,1.92 1.92,2.87 3.7,2.87c1.51,0 3.08,-0.34 4.72,-1.02l19.51,-7.39v87.89h-19.51c-3.97,0 -5.96,1.78 -5.96,5.34v12.73c0,3.7 1.99,5.55 5.96,5.55h62.63c2.05,0 3.53,-0.34 4.41,-1.03c0.89,-0.68 1.34,-2.05 1.34,-4.11v-13.14c0,-3.56 -1.99,-5.34 -5.96,-5.34h-15.2V136.76c0,-9.45 -4.59,-14.17 -13.76,-14.17h-1.64V122.59z"/>
  <path fill="#000003" d="M457.24,427.73l-60.68,-105.09c31.9,-34.29 51.44,-80.22 51.44,-130.64C448,86.13 361.87,0 256,0C150.13,0 64,86.13 64,192c0,50.42 19.54,96.35 51.44,130.64L54.76,427.73c-2.16,3.74 -1.85,8.4 0.77,11.83c2.63,3.42 7.06,4.92 11.22,3.81l82.95,-22.23l22.23,82.95c1.12,4.17 4.64,7.25 8.91,7.82c0.47,0.06 0.93,0.09 1.39,0.09c3.78,0 7.32,-2.01 9.24,-5.34l64.45,-111.85l64.58,111.86c1.92,3.33 5.46,5.33 9.23,5.33c0.46,0 0.93,-0.03 1.4,-0.09c4.28,-0.56 7.79,-3.65 8.91,-7.81l22.23,-82.95l82.95,22.23c4.16,1.12 8.6,-0.39 11.22,-3.81C459.09,436.14 459.39,431.47 457.24,427.73zM256,21.33c94.11,0 170.66,76.56 170.66,170.66s-76.56,170.67 -170.66,170.67S85.33,286.1 85.33,192S161.9,21.33 256,21.33zM185.87,473.67l-18.32,-68.35c-1.52,-5.69 -7.38,-9.07 -13.06,-7.54l-68.38,18.32l45.17,-78.24c29.3,25.09 66.21,41.52 106.75,45.3L185.87,473.67zM357.5,397.78c-5.69,-1.52 -11.54,1.85 -13.06,7.54l-18.32,68.38l-52.27,-90.54c40.58,-3.76 77.54,-20.19 106.86,-45.31l45.17,78.24L357.5,397.78z"/>
</svg>
