<svg xmlns="http://www.w3.org/2000/svg" viewBox="0 0 512 512">
  <path d="M256,256m-256,0a256,256 0,1 1,512 0a256,256 0,1 1,-512 0" fill="#273B7A"/>
  <path d="M499.24,335.97L314.11,150.84l4.53,93.67l1.45,1.45l-9.57,0.63L175.55,111.62l2.3,26.58l1.15,1.15l-38.21,38.22l-1.65,-1.65l-25.79,-2.08L404.25,464.73C448.32,433.38 482.01,388.41 499.24,335.97z" fill="#121149"/>
  <path d="M353.84,492.62L175.98,314.76l0.85,16.65l3.17,6.4l-3.88,22.77l-13,-13l-19.03,-0.93l160.69,160.69C321.8,504.05 338.21,499.09 353.84,492.62z" fill="#121149"/>
  <path d="M175.55,236.03c0,-60.23 -62.2,-62.2 -62.2,-62.2c60.23,0 62.2,-62.2 62.2,-62.2c0,60.23 62.2,62.2 62.2,62.2C177.52,173.83 175.55,236.03 175.55,236.03z" fill="#FFC61B"/>
  <path d="M175.55,111.62c0,60.23 62.2,62.2 62.2,62.2c-60.23,0 -62.2,62.2 -62.2,62.2V111.62z" fill="#E09112"/>
  <path d="M175.98,378.54c0,-30.88 -31.89,-31.89 -31.89,-31.89c30.88,0 31.89,-31.89 31.89,-31.89c0,30.88 31.89,31.89 31.89,31.89C176.99,346.65 175.98,378.54 175.98,378.54z" fill="#FFC61B"/>
  <path d="M175.98,314.76c0,30.88 31.89,31.89 31.89,31.89c-30.88,0 -31.89,31.89 -31.89,31.89V314.76z" fill="#E09112"/>
  <path d="M314.11,355.27c0,-98.97 -102.21,-102.21 -102.21,-102.21c98.97,0 102.21,-102.21 102.21,-102.21c0,98.97 102.21,102.21 102.21,102.21C317.36,253.05 314.11,355.27 314.11,355.27z" fill="#FFC61B"/>
  <path d="M314.11,150.84c0,98.97 102.21,102.21 102.21,102.21c-98.97,0 -102.21,102.21 -102.21,102.21V150.84z" fill="#E09112"/>
</svg>
